<svg fill="none" height="41" viewBox="0 0 160 41" width="160" xmlns="http://www.w3.org/2000/svg"><g fill="#fff"><path d="m15.4836 3.41667c0-1.88771 1.5398-3.41667 3.4409-3.41667h1.7204c11.4022 0 20.6452 9.17802 20.6452 20.5v17.0833c0 1.8877-1.5398 3.4167-3.4408 3.4167h-1.7205c-11.4021 0-20.6452-9.178-20.6452-20.5z" opacity=".56"/><path d="m17.2043 41.0002c9.5017 0 17.2043-7.6485 17.2043-17.0834 0-9.4348-7.7026-17.0833-17.2043-17.0833-9.50167 0-17.2043 7.6485-17.2043 17.0833 0 9.4349 7.70263 17.0834 17.2043 17.0834z" opacity=".88"/><path d="m64.8185 32.5732h5.7402l-8.059-22.3232h-6.2752l-8.0525 22.3232h5.6744l1.3342-3.9432h8.3032zm-2.7282-8.1407h-5.4826l2.7213-8.1724zm19.0641 1.4946-4.089-11.098h-6.0573l7.2 17.1399-4.0623 9.031h5.8391l11.0977-26.1709h-5.8658zm17.3067-1.59c0-3.0527 1.4929-3.9431 4.0629-3.9431h1.486v-5.7557c-2.378 0-4.3137 1.272-5.5489 3.1481v-2.9573h-5.4233v17.7441h5.4233zm25.4519-.636c0-5.6285-3.99-9.1264-9.195-9.1264-5.166 0-9.195 3.4979-9.195 9.1264s3.937 9.1264 9.136 9.1264c5.198 0 9.254-3.4979 9.254-9.1264zm-12.868 0c0-3.0209 1.711-4.4201 3.673-4.4201 1.902 0 3.679 1.3992 3.679 4.4201 0 2.9892-1.803 4.4202-3.738 4.4202-1.969 0-3.614-1.431-3.614-4.4202zm24.613.6996c0 5.7557 3.739 8.3951 8.31 8.3951 4.565 0 8.337-2.6394 8.337-8.3951v-13.9917h-2.887v14.0235c0 4.0704-2.154 5.8193-5.424 5.8193-3.263 0-5.449-1.7489-5.449-5.8193v-14.0235h-2.887zm21.462 8.1725h2.88v-22.1642h-2.88z"/></g></svg>