<svg width="28" height="28" viewBox="0 0 28 28" fill="none" xmlns="http://www.w3.org/2000/svg"><path d="M27.578 17.3867C25.7082 24.8867 18.1118 29.4511 10.6109 27.5809C3.11305 25.7111 -1.45134 18.1142 0.419279 10.6148C2.28826 3.11387 9.88462 -1.45087 17.3833 0.418928C24.8837 2.28873 29.4478 9.88639 27.5778 17.3868L27.5779 17.3867H27.578Z" fill="#1181E7"></path><g clip-path="url(#clip0_73_10312)"><path d="M13.9982 6.12451L13.8926 6.48343V16.8976L13.9982 17.003L18.8323 14.1456L13.9982 6.12451Z" fill="#D6D6D6"></path><path d="M13.9982 6.12451L9.16406 14.1456L13.9982 17.003V11.9483V6.12451Z" fill="white"></path><path d="M13.998 17.9175L13.9385 17.9901V21.6998L13.998 21.8736L18.835 15.0615L13.998 17.9175Z" fill="#D6D6D6"></path><path d="M13.9982 21.8736V17.9175L9.16406 15.0615L13.9982 21.8736Z" fill="white"></path><path d="M13.998 17.0025L18.8321 14.1451L13.998 11.9478V17.0025Z" fill="#F3F3F3"></path><path d="M9.16406 14.1451L13.9982 17.0025V11.9478L9.16406 14.1451Z" fill="#E2E2E2"></path></g><defs><clipPath id="clip0_73_10312"><rect width="15.749" height="15.749" fill="white" transform="translate(6.125 6.12451)"></rect></clipPath></defs></svg>