<svg width="28" height="28" viewBox="0 0 28 28" fill="none" xmlns="http://www.w3.org/2000/svg"><circle cx="14" cy="14" r="14" fill="#F14E51"></circle><path d="M20.8096 11.2176C20.1191 10.6117 19.1639 9.6864 18.386 9.03016L18.34 8.99953C18.2634 8.94108 18.177 8.89524 18.0845 8.86391C16.2087 8.53142 7.47873 6.9805 7.30841 7.00019C7.26069 7.00654 7.21507 7.02298 7.17492 7.04831L7.13119 7.08112C7.07734 7.1331 7.03645 7.19589 7.01151 7.26487L7 7.29331V7.44862V7.47268C7.98278 10.0736 11.8633 18.5938 12.6274 20.5931C12.6734 20.7288 12.7609 20.9869 12.9243 21H12.9611C13.0486 21 13.4215 20.5319 13.4215 20.5319C13.4215 20.5319 20.0869 12.8495 20.7612 12.0314C20.8485 11.9306 20.9256 11.8222 20.9914 11.7076C21.0082 11.618 21.0003 11.5257 20.9684 11.4399C20.9366 11.354 20.8818 11.2774 20.8096 11.2176ZM15.1315 12.1123L17.9763 9.87015L19.645 11.3314L15.1315 12.1123ZM14.0268 11.9657L9.12898 8.1508L17.0534 9.53984L14.0268 11.9657ZM14.4687 12.9654L19.4816 12.1976L13.7506 18.76L14.4687 12.9654ZM8.46382 8.53142L13.6171 12.6876L12.8714 18.7644L8.46382 8.53142Z" fill="white"></path></svg>