<svg width="40" height="40" viewBox="0 0 40 40" fill="none" xmlns="http://www.w3.org/2000/svg"><path d="M33.3333 9.99992H29.6999C29.8833 9.48325 29.9999 8.91658 29.9999 8.33325C29.9999 5.56659 27.7666 3.33325 24.9999 3.33325C23.2499 3.33325 21.7333 4.23325 20.8333 5.58325L19.9999 6.69992L19.1666 5.56659C18.2666 4.23325 16.7499 3.33325 14.9999 3.33325C12.2333 3.33325 9.99992 5.56659 9.99992 8.33325C9.99992 8.91658 10.1166 9.48325 10.2999 9.99992H6.66659C4.81659 9.99992 3.34992 11.4833 3.34992 13.3333L3.33325 31.6666C3.33325 33.5166 4.81659 34.9999 6.66659 34.9999H33.3333C35.1833 34.9999 36.6666 33.5166 36.6666 31.6666V13.3333C36.6666 11.4833 35.1833 9.99992 33.3333 9.99992ZM24.9999 6.66659C25.9166 6.66659 26.6666 7.41658 26.6666 8.33325C26.6666 9.24992 25.9166 9.99992 24.9999 9.99992C24.0833 9.99992 23.3333 9.24992 23.3333 8.33325C23.3333 7.41658 24.0833 6.66659 24.9999 6.66659ZM14.9999 6.66659C15.9166 6.66659 16.6666 7.41658 16.6666 8.33325C16.6666 9.24992 15.9166 9.99992 14.9999 9.99992C14.0833 9.99992 13.3333 9.24992 13.3333 8.33325C13.3333 7.41658 14.0833 6.66659 14.9999 6.66659ZM33.3333 31.6666H6.66659V28.3333H33.3333V31.6666ZM33.3333 23.3333H6.66659V13.3333H15.1333L11.6666 18.0499L14.3666 19.9999L18.3333 14.5999L19.9999 12.3333L21.6666 14.5999L25.6333 19.9999L28.3333 18.0499L24.8666 13.3333H33.3333V23.3333Z" fill="white"></path></svg>