<svg fill="none" height="41" viewBox="0 0 170 41" width="170" xmlns="http://www.w3.org/2000/svg"><path d="m44 20.5c0 4.125-3.3763 7.5-7.5388 7.5-5.4575 0-8.2325-3.7501-10.9612-7.5-2.7287-3.75-5.5038-7.5-10.9613-7.5-4.1625 0-7.5387 3.375-7.5387 7.5" stroke="#fff" stroke-miterlimit="10" stroke-width="4"/><path d="m44 20.5c0-4.125-3.3763-7.5-7.5388-7.5-5.4574 0-8.2324 3.75-10.9612 7.5s-5.5038 7.5-10.9613 7.5c-4.1625 0-7.5387-3.375-7.5387-7.5" stroke="#fff" stroke-miterlimit="10" stroke-width="4"/><path d="m58.5344 29.9581v-19.3609h2.5376v16.8355h7.9296v2.5254zm13.0146-15.3204v-2.6937h2.5376v2.6937zm0 15.3204v-13.9736h2.5376v13.9736zm34.285-15.3204v-2.6937h2.538v2.6937zm0 15.3204v-13.9736h2.538v13.9736zm-17.5042-8.8808c-.079-.5471-.1982-1.1364-.3964-1.7256-.1982-.5893-.5155-1.1364-.8724-1.6415-.3964-.5051-.8725-.926-1.5065-1.2206-.6348-.2946-1.388-.463-2.3-.463-1.1891 0-2.1807.2526-3.013.7998-.3964.2525-.7137.5471-1.0311.8838v-1.6836h-2.5376v13.9736h2.5376v-6.9447h.0395c0-.8418.0797-1.5152.2779-2.1045.1587-.5892.3963-1.0522.7137-1.3889s.6736-.5892 1.0706-.7576c.3964-.1683.8323-.2525 1.3084-.2525.7137 0 1.2688.1683 1.7047.4629.4365.2947.7532.7155 1.0311 1.1786.2377.505.3964 1.0101.4754 1.5993.0797.5893.1192 1.1364.1192 1.6836v6.5238h2.5771v-7.4497c-.079-.421-.1185-.9261-.1982-1.4732zm64.0802 0c-.079-.5471-.198-1.1364-.396-1.7256-.198-.5893-.516-1.1364-.873-1.6415-.396-.5051-.871-.926-1.506-1.2206-.634-.2946-1.387-.463-2.299-.463-1.19 0-2.181.2526-3.014.7998-.396.2525-.714.5471-1.031.8838v-1.6836h-2.538v13.9736h2.538v-6.9447h.04c0-.8418.079-1.5152.277-2.1045.159-.5892.397-1.0522.714-1.3889s.674-.5892 1.071-.7576c.396-.1683.832-.2525 1.308-.2525.714 0 1.269.1683 1.705.4629.436.2947.754.7155.991 1.1786.238.505.397 1.0101.476 1.5993.079.5893.119 1.1364.119 1.6836v6.5238h2.577v-7.4497c-.04-.421-.079-.9261-.159-1.4732zm-50.154 2.6095h1.269c.079-1.5994-.08-2.9462-.555-4.1247-.476-1.1364-1.19-2.0623-2.102-2.6516-.9511-.6313-2.1008-.926-3.4091-.926-1.2688 0-2.4191.2947-3.3706.8839-.9514.5893-1.7047 1.3889-2.2597 2.4833-.5551 1.0522-.7935 2.3149-.7935 3.7458 0 1.3469.2779 2.5675.833 3.6197.555 1.0522 1.3083 1.8519 2.2999 2.3991.991.5892 2.1406.8839 3.4489.8839 1.2688 0 2.4191-.3367 3.4901-.9681 1.03-.6313 1.824-1.5572 2.338-2.7358l-2.497-.7996c-.317.6734-.793 1.2205-1.3485 1.5573-.5946.3787-1.2688.5471-2.0616.5471-1.2293 0-2.1413-.3788-2.7753-1.1785-.5156-.6734-.833-1.5573-.912-2.6516h7.2564 1.149zm-7.6126-4.2089c.6348-.7997 1.5862-1.2206 2.855-1.2206 1.1496 0 2.0221.3789 2.5776 1.0944.396.5051.674 1.2626.792 2.1886h-7.097c.1586-.8418.476-1.5152.8724-2.0624zm22.3816 10.4802c-1.349 0-2.498-.2946-3.45-.926-.952-.5892-1.666-1.431-2.181-2.4832s-.753-2.2728-.753-3.5776c0-1.3469.277-2.5674.793-3.6196.515-1.0522 1.229-1.894 2.181-2.4833.951-.5892 2.101-.8839 3.41-.8839 1.427 0 2.656.3788 3.687 1.0944 1.03.7155 1.705 1.7256 2.022 2.9462l-2.538.7155c-.237-.7576-.674-1.3047-1.229-1.7257-.555-.4209-1.228-.6313-1.982-.6313-.833 0-1.507.2104-2.062.5893-.555.3788-.951.9259-1.189 1.6414-.278.6734-.397 1.4731-.397 2.357 0 1.3468.317 2.4832.952 3.325.594.8419 1.506 1.2627 2.736 1.2627.832 0 1.467-.2105 1.982-.5892.515-.3788.912-.926 1.15-1.6415l2.577.6313c-.436 1.3048-1.15 2.2728-2.141 2.9884-.952.6734-2.181 1.0101-3.568 1.0101zm14.719 0c-1.309 0-2.459-.2947-3.41-.8839-.952-.5893-1.705-1.431-2.22-2.4832-.516-1.0523-.794-2.2729-.794-3.6197 0-1.3889.278-2.6095.794-3.6617.555-1.0523 1.268-1.8519 2.259-2.4412.952-.5892 2.102-.8839 3.371-.8839 1.308 0 2.458.2947 3.409.8839.953.5893 1.706 1.4311 2.261 2.4833.515 1.0522.793 2.2727.793 3.6196 0 1.389-.278 2.6096-.793 3.6617-.516 1.0522-1.269 1.852-2.261 2.4833-.991.5471-2.101.8418-3.409.8418zm0-2.3991c1.269 0 2.181-.4208 2.815-1.2627.635-.8418.951-1.936.951-3.325 0-1.3889-.316-2.4832-.951-3.325-.634-.8418-1.546-1.2627-2.815-1.2627-.872 0-1.547.2104-2.102.5893-.555.3788-.951.9259-1.229 1.5993-.277.6735-.396 1.4732-.396 2.357 0 1.3889.317 2.4833.951 3.3251.595.8838 1.547 1.3047 2.776 1.3047zm29.042 2.3991c-1.586 0-2.894-.3367-3.926-1.0523-.99-.7155-1.625-1.7256-1.863-2.9882l2.617-.4209c.158.6734.555 1.2205 1.11 1.6414.595.3788 1.309.5893 2.181.5893.793 0 1.427-.1684 1.864-.5051.436-.3367.673-.7576.673-1.3469 0-.3367-.079-.5892-.237-.7996-.159-.2105-.476-.421-.991-.5893-.516-.1684-1.269-.4209-2.3-.7155-1.11-.2946-2.022-.6313-2.697-.968-.674-.3367-1.149-.7577-1.427-1.1786-.277-.4629-.436-1.0101-.436-1.6414 0-.7997.198-1.5152.634-2.1044.437-.5893 1.031-1.0522 1.784-1.389.754-.3367 1.666-.5051 2.697-.5051.991 0 1.903.1684 2.696.463.793.3367 1.428.7576 1.903 1.3469.476.5892.793 1.2626.872 2.0624l-2.616.4629c-.08-.6313-.397-1.1364-.873-1.5152-.515-.3788-1.149-.5892-1.943-.5892-.753-.0421-1.387.0842-1.863.3787-.476.2947-.714.6735-.714 1.1786 0 .2945.079.5471.278.7576.198.2104.555.4208 1.07.5892.515.1683 1.309.4209 2.339.6734 1.111.2946 1.983.5893 2.618.968.634.3367 1.11.7577 1.387 1.2206.278.463.437 1.0523.437 1.7257 0 1.3047-.476 2.357-1.428 3.0725-.872.7997-2.181 1.1785-3.846 1.1785z" fill="#fff"/></svg>