<svg fill="none" height="46" viewBox="0 0 176 46" width="176" xmlns="http://www.w3.org/2000/svg"><path clip-rule="evenodd" d="m31.2602 9.24285c-.7813-.6724-3.0025-1.66128-8.1925-1.57033l-.0333.00058h-.0332c-8.5142 0-15.37426 6.8868-15.37426 15.3301s6.86006 15.3301 15.37426 15.3301c6.7802 0 12.5267-4.3746 14.5735-10.4308.6775-2.0046 2.8433-3.0776 4.8375-2.3966 1.9941.681 3.0616 2.8581 2.3841 4.8627-3.0742 9.0962-11.6759 15.6314-21.7951 15.6314-12.6799 0-23.0012-10.2727-23.0012-22.9968 0-12.7127 10.3028-22.9783896 22.9672-22.99673705 5.7318-.09647595 10.3105.87997705 13.2533 3.41266705 3.3346 2.8699 3.6516 6.84597 2.6736 10.21407-.9342 3.2171-3.0974 6.3102-5.5565 8.8395-2.4953 2.5664-5.5791 4.8457-8.739 6.311-1.9125.8868-4.178.0472-5.0602-1.8752s-.047-4.1997 1.8654-5.0865c2.2127-1.026 4.5494-2.7231 6.4793-4.708 1.966-2.0221 3.2326-4.0552 3.6895-5.6289.4132-1.4229.0826-1.90228-.3124-2.24225z" fill="#3e7dff" fill-rule="evenodd"/><path d="m83.9666 18.9297h-5.2883c-.0966-.6842-.2938-1.2919-.5917-1.8232-.2978-.5393-.6801-.9981-1.147-1.3764-.4668-.3783-1.0061-.6681-1.6179-.8693-.6037-.2012-1.2597-.3019-1.968-.3019-1.2798 0-2.3947.318-3.3445.9539-.9498.6278-1.6863 1.5454-2.2095 2.7528-.5232 1.1994-.7848 2.6563-.7848 4.3708 0 1.7627.2616 3.2438.7848 4.4431.5313 1.1994 1.2718 2.1049 2.2216 2.7167.9498.6117 2.0485.9176 3.2962.9176.7003 0 1.3482-.0926 1.9439-.2777.6037-.1852 1.1389-.4548 1.6058-.809.4668-.3622.8532-.8009 1.1591-1.316.3139-.5152.5312-1.1028.652-1.7628l5.2883.0241c-.1368 1.135-.4789 2.2297-1.0263 3.2841-.5393 1.0464-1.2677 1.9842-2.1853 2.8132-.9096.8211-1.9962 1.4731-3.26 1.956-1.2557.4749-2.6763.7124-4.262.7124-2.2055 0-4.1776-.4991-5.9162-1.4972-1.7306-.9981-3.099-2.4429-4.1052-4.3345-.9981-1.8916-1.4971-4.1816-1.4971-6.87 0-2.6965.5071-4.9906 1.5213-6.8821 1.0142-1.8916 2.3906-3.3324 4.1293-4.3225 1.7386-.9981 3.6946-1.49714 5.8679-1.49714 1.4327 0 2.7608.20124 3.9843.60374 1.2316.4024 2.3222.99 3.272 1.7627.9499.7647 1.7226 1.7025 2.3182 2.8132.6037 1.1108.9901 2.3826 1.1591 3.8154zm3.6524 16.0703v-18.5455h4.9865v3.2358h.1932c.338-1.151.9055-2.0203 1.7024-2.6079.7968-.5957 1.7145-.8935 2.7528-.8935.2576 0 .5353.0161.8331.0483s.5594.0765.7848.1328v4.5639c-.2415-.0724-.5755-.1368-1.0021-.1931-.4266-.0564-.817-.0846-1.1712-.0846-.7566 0-1.4328.1651-2.0284.4951-.5876.3219-1.0545.7727-1.4006 1.3523-.338.5795-.5071 1.2476-.5071 2.0042v10.4922zm17.652 6.9545c-.652 0-1.264-.0523-1.835-.1569-.564-.0966-1.031-.2214-1.401-.3743l1.159-3.8395c.604.1851 1.147.2858 1.63.3019.491.0161.914-.0966 1.268-.3381.362-.2415.656-.652.881-1.2315l.302-.7849-6.652-19.0767h5.409l3.839 13.6194h.193l3.876-13.6194h5.445l-7.208 20.5498c-.346.9981-.817 1.8674-1.412 2.6079-.588.7486-1.333 1.3241-2.234 1.7266-.902.4105-1.988.6157-3.26.6157zm16.746 0v-25.5h5.071v3.1151h.23c.225-.4991.551-1.0062.978-1.5213.434-.5232.998-.9579 1.69-1.304.7-.3541 1.57-.5312 2.608-.5312 1.352 0 2.6.3541 3.743 1.0625 1.143.7003 2.057 1.7587 2.741 3.1754.684 1.4086 1.026 3.1754 1.026 5.3004 0 2.0687-.334 3.8154-1.002 5.2401-.66 1.4166-1.562 2.4912-2.705 3.2237-1.135.7244-2.406 1.0866-3.815 1.0866-.998 0-1.847-.165-2.548-.495-.692-.33-1.259-.7445-1.702-1.2436-.443-.5071-.781-1.0182-1.014-1.5334h-.157v9.9247zm5.035-16.2272c0 1.1027.153 2.0646.459 2.8856s.749 1.461 1.328 1.9198c.58.4507 1.284.6761 2.113.6761.837 0 1.546-.2294 2.125-.6882.58-.4669 1.018-1.1108 1.316-1.9318.306-.8291.459-1.7829.459-2.8615 0-1.0706-.149-2.0123-.447-2.8253s-.736-1.4489-1.316-1.9077c-.579-.4588-1.292-.6882-2.137-.6882-.837 0-1.545.2214-2.125.6641-.571.4427-1.01 1.0705-1.316 1.8835s-.459 1.7708-.459 2.8736zm26.345-9.2728v3.8637h-11.168v-3.8637zm-8.632-4.4431h5.143v17.2897c0 .4749.072.8452.217 1.1108.145.2576.346.4387.604.5434.266.1046.572.1569.918.1569.241 0 .483-.0201.724-.0604.242-.0482.427-.0845.555-.1086l.809 3.8274c-.257.0805-.619.1731-1.086.2777-.467.1127-1.035.1811-1.703.2053-1.239.0482-2.326-.1168-3.26-.4951-.925-.3783-1.646-.9659-2.161-1.7628-.515-.7968-.768-1.803-.76-3.0184zm20.163 23.3508c-1.876 0-3.497-.3984-4.866-1.1953-1.36-.8049-2.411-1.9238-3.151-3.3565-.741-1.4408-1.111-3.1111-1.111-5.0107 0-1.9157.37-3.5899 1.111-5.0227.74-1.4408 1.791-2.5597 3.151-3.3565 1.369-.805 2.99-1.2074 4.866-1.2074 1.875 0 3.493.4024 4.854 1.2074 1.368.7968 2.422 1.9157 3.163 3.3565.74 1.4328 1.111 3.107 1.111 5.0227 0 1.8996-.371 3.5699-1.111 5.0107-.741 1.4327-1.795 2.5516-3.163 3.3565-1.361.7969-2.979 1.1953-4.854 1.1953zm.024-3.9844c.853 0 1.566-.2414 2.137-.7244.572-.491 1.002-1.1591 1.292-2.0043.298-.8451.447-1.807.447-2.8856s-.149-2.0405-.447-2.8857c-.29-.8451-.72-1.5132-1.292-2.0042-.571-.491-1.284-.7365-2.137-.7365-.861 0-1.586.2455-2.173.7365-.58.491-1.018 1.1591-1.316 2.0042-.29.8452-.435 1.8071-.435 2.8857s.145 2.0405.435 2.8856c.298.8452.736 1.5133 1.316 2.0043.587.483 1.312.7244 2.173.7244z" fill="#080321"/></svg>