<svg fill="none" height="34" viewBox="0 0 201 34" width="201" xmlns="http://www.w3.org/2000/svg" xmlns:xlink="http://www.w3.org/1999/xlink"><clipPath id="a"><path d="m.628906.764282h200v32.4715h-200z"/></clipPath><g clip-path="url(#a)"><path d="m42.803 27.8702h4.045v-7.3951h4.2813c5.171 0 7.8816-3.0442 7.8816-7.3116 0-4.26748-2.7801-7.25608-7.8816-7.25608h-8.3402zm4.045-10.6617v-7.92327h3.7114c3.0303 0 4.3787 1.59857 4.3787 3.93387 0 2.3352-1.3901 3.9894-4.3509 3.9894zm19.4607-11.24548h-3.8922v21.90718h3.9617zm8.8963 22.24078c.9864.0979 1.9803-.0882 2.8644-.5364.8842-.4483 1.6218-1.1399 2.1258-1.9935h.1251v2.2519h3.7949v-11.0509c0-4.337-3.6142-5.6436-6.8113-5.6436-3.5307 0-6.2413 1.543-7.1031 4.5316l3.6975.5143c.2701-.672.7506-1.2384 1.3696-1.6143.6189-.3759 1.3431-.5411 2.0638-.4708 1.8349 0 2.7801.9174 2.7801 2.5299 0 1.112-1.1954 1.1676-4.1701 1.4734-3.2527.3475-6.3664 1.2928-6.3664 4.9903.0834 3.3083 2.4882 5.0181 5.6853 5.0181zm1.0286-2.7801c-1.6542 0-2.7801-.7367-2.7801-2.1546 0-1.4178 1.3901-2.1129 3.0859-2.3492 1.248-.0812 2.4763-.3531 3.6419-.8062v1.9322c-.0276.4772-.1514.9439-.3641 1.3721-.2127.4281-.5097.8088-.8733 1.1192-.3636.3103-.7862.5439-1.2424.6867-.4563.1428-.9366.1918-1.4123.1442zm11.8015 2.516h3.9477v-16.486h-3.8921zm1.9878-18.76567c.2975.02081.5962-.01921.8777-.11761.2816-.0984.5402-.25312.76-.45472s.3962-.44587.5186-.7179c.1223-.27203.1879-.56612.1928-.86434-.0449-.57566-.3053-1.1132-.7291-1.50529-.4239-.39209-.9801-.60987-1.5575-.60987s-1.1336.21778-1.5574.60987c-.4239.39209-.6843.92963-.7292 1.50529.0253.58017.2793 1.12672.7065 1.52007.4273.39336.9929.6015 1.5732.5789zm9.9801 9.13257c-.0513-.4936.005-.9926.167-1.462.161-.4694.423-.8978.767-1.2553.345-.3576.763-.6355 1.226-.8144s.959-.2545 1.455-.2214c.456-.0261.913.0486 1.337.2188.424.1703.806.4319 1.118.7663.312.3343.546.7333.686 1.1684.14.4352.183.8959.125 1.3494v9.8555h3.948v-10.4949c0-3.9338-2.28-6.1857-5.741-6.1857-1.042-.0796-2.084.1666-2.98.7044-.897.5379-1.604 1.3409-2.024 2.2981h-.1948v-2.7801h-3.7809v16.4165h3.9477zm15.764 9.6192 2.39-6.6028h9.397l2.391 6.6028h2.141l-8.076-21.94888h-2.197l-8.132 21.89328zm3.044-8.3403 4.031-11.00919h.111l3.962 10.91189zm22.741 8.7434c1.104.0323 2.191-.2759 3.113-.8826.923-.6068 1.636-1.4828 2.044-2.5091h.236v3.0442h1.905v-22.00448h-1.96v8.57658h-.181c-.399-1.0213-1.106-1.8934-2.022-2.496-.917-.6026-1.997-.9058-3.093-.8679-4.171 0-6.951 3.4195-6.951 8.4793s2.85 8.5488 6.965 8.5488zm.236-1.7376c-3.336 0-5.171-2.9747-5.171-6.7973s1.807-6.7139 5.171-6.7139 5.13 2.7801 5.13 6.7139-1.821 6.6861-5.088 6.6861zm12.594 1.3901h1.932v-10.6478c-.037-.5656.045-1.1326.239-1.6651.194-.5324.497-1.0187.889-1.4279.392-.4091.865-.7323 1.389-.9488.524-.2166 1.087-.3218 1.653-.309.494-.0323.988.0428 1.449.22.462.1772.879.4524 1.224.8064.345.3541.609.7787.774 1.2447.165.4659.227.962.181 1.4542v11.1204h1.933v-10.7729c-.045-.5409.027-1.0851.211-1.5957s.476-.9755.856-1.3633c.379-.3877.838-.6891 1.345-.8837s1.049-.2778 1.591-.244c.511-.0372 1.025.0399 1.503.2254.478.1856.909.475 1.261.8475.353.3725.618.8186.777 1.3062.159.4875.208 1.0043.143 1.513v11.0092h1.946v-10.9953c0-3.6836-1.933-5.6297-5.046-5.6297-1.034-.0718-2.065.1765-2.953.7112s-1.59 1.3299-2.01 2.2774h-.139c-.378-.8699-.996-1.6139-1.783-2.1449-.786-.531-1.707-.827-2.655-.8533-.948-.0262-1.884.2183-2.698.705-.815.4867-1.473 1.1954-1.899 2.043h-.181v-2.5299h-1.89zm26.411 0h1.96v-16.5277h-1.96zm.987-19.25219c.188.00943.376-.01955.553-.08517s.339-.16652.475-.29655c.137-.13003.245-.28647.319-.45982.075-.17334.113-.35996.112-.5485 0-.3871-.153-.75834-.427-1.03206s-.645-.42749-1.032-.42749-.758.15377-1.032.42749-.428.64496-.428 1.03206c.014.18403.065.36344.149.52775.084.16432.2.31026.341.4293s.304.20881.48.26405c.176.05525.362.07488.545.05774zm8.048 8.97969c-.04-.6123.05-1.2261.264-1.8011.214-.5751.548-1.0984.978-1.5355.431-.4371.949-.7783 1.521-1.001.571-.2227 1.184-.3219 1.797-.2912.572-.0242 1.142.0742 1.673.2886s1.01.5399 1.405.9545c.395.4147.697.9089.885 1.4497s.259 1.1156.207 1.6858v10.5227h1.946v-10.7451c0-3.8921-2.308-6.005-5.685-6.005-1.006-.0779-2.012.1449-2.89.6399-.879.4949-1.591 1.2399-2.045 2.1402h-.181v-2.5577h-1.89v16.4165h1.946z" fill="#262d3f"/><g fill="#2f80ed"><path d="m36.9946 14.915-7.1727-12.05171c-.3645-.63692-.8905-1.16639-1.5251-1.53493-.6346-.368543-1.3552-.563106-2.089-.564042h-14.2619c-.7409-.006449-1.4701.184612-2.11266.553522-.64254.36892-1.1752.90236-1.54316 1.54545l-7.13094 12.05171c-.347952.6399-.530234 1.3567-.530234 2.0851 0 .7283.182282 1.4451.530234 2.085l7.13094 12.0518c.36796.643.90062 1.1765 1.54316 1.5454.64256.3689 1.37176.56 2.11266.5535h14.2619c.7325.0005 1.4521-.192 2.0866-.558.6344-.366 1.1613-.8927 1.5275-1.527l7.131-12.0518c.3555-.6385.5456-1.3559.5529-2.0867s-.1685-1.4518-.5112-2.0973zm-2.7801 2.6133-7.1727 12.0517c-.0959.1739-.2402.3164-.4153.4101s-.3737.1348-.5716.1181h-14.109c-.1963.0057-.3906-.0401-.5638-.1328-.1731-.0926-.319-.2289-.4231-.3954l-7.11707-12.0517c-.0892-.1768-.13566-.372-.13566-.5699 0-.198.04646-.3932.13566-.57l7.13097-12.03776c.0959-.17394.2402-.31638.4153-.41011.1751-.09374.3737-.13476.5716-.11811h14.248c.1963-.00566.3906.04011.5637.13277.1732.09266.3191.22899.4232.39545l7.131 12.05176c.0937.1771.1344.3776.1171.5772-.0172.1997-.0917.3902-.2144.5487z"/><path d="m25.5655 9.42429h-2.8635c-1.1199-.00758-2.198.4254-3.0015 1.20551-.8036.7802-1.2682 1.845-1.2937 2.9646v3.0442h-3.0998c-1.12-.0075-2.198.4254-3.0016 1.2056-.8035.7801-1.2682 1.8449-1.2937 2.9646v2.7801c.0074.5911.2483 1.1553.6702 1.5694s.9905.6445 1.5817.6408h2.7801c1.1199.0075 2.198-.4255 3.0015-1.2056.8036-.7801 1.2682-1.8449 1.2937-2.9646v-2.9886h3.1137c1.12.0076 2.198-.4254 3.0016-1.2055.8035-.7802 1.2682-1.845 1.2937-2.9646v-2.7801c.0055-.2921-.0466-.5824-.1532-.8544-.1067-.2719-.266-.5202-.4686-.7306-.2027-.21042-.4448-.37884-.7126-.49566-.2677-.11681-.5559-.17972-.848-.18515zm-7.1587 12.23241c-.0037.2976-.0659.5915-.1831.865s-.2872.5212-.5002.7291c-.213.2078-.4648.3716-.7411.4821s-.5717.1655-.8692.1618h-2.7801c-.064.0001-.1256-.0244-.1722-.0683-.0465-.044-.0745-.1041-.078-.168v-2.7801c.0036-.2976.0658-.5915.1831-.865.1172-.2735.2871-.5213.5001-.7291s.4648-.3716.7411-.4821c.2764-.1105.5717-.1655.8693-.1618h3.0998zm7.4089-7.256c-.0073.6022-.2526 1.177-.6824 1.5989-.4297.4219-1.0089.6567-1.6112.6529h-3.1137v-3.0442c.0018-.2987.0627-.5941.1791-.8692.1165-.2751.2861-.5245.4993-.7338s.4656-.3744.7428-.4857c.2772-.1114.5737-.1668.8724-.1631h2.8635c.0664 0 .13.0263.1769.0732.047.047.0733.1106.0733.177z" stroke="#2f80ed" stroke-width=".5"/></g></g></svg>