<svg width="28" height="29" viewBox="0 0 28 29" fill="none" xmlns="http://www.w3.org/2000/svg"><path d="M27.5815 17.3879C25.7115 24.8885 18.1146 29.4533 10.6131 27.5829C3.11474 25.7129 -1.44998 18.1155 0.420775 10.6155C2.28989 3.11409 9.8868 -1.45098 17.386 0.418958C24.8869 2.28889 29.4514 9.8871 27.5813 17.3881L27.5814 17.3879H27.5815Z" fill="#F7931A"></path><path d="M18.9713 12.0301C19.2001 10.454 18.0353 9.60675 16.4424 9.04155L16.9591 6.90652L15.6975 6.58268L15.1945 8.6615C14.8628 8.57628 14.5222 8.49599 14.1837 8.41639L14.6904 6.32384L13.4295 6L12.9125 8.13434C12.6381 8.06996 12.3685 8.00634 12.107 7.9393L12.1084 7.93259L10.3686 7.48503L10.033 8.87315C10.033 8.87315 10.969 9.09418 10.9493 9.10778C11.4602 9.23914 11.5526 9.58753 11.5372 9.86367L10.9486 12.296C10.9838 12.3052 11.0294 12.3185 11.0798 12.3393C11.0377 12.3286 10.9929 12.3168 10.9464 12.3054L10.1214 15.7127C10.059 15.8726 9.90051 16.1125 9.54333 16.0214C9.55597 16.0403 8.62637 15.7857 8.62637 15.7857L8 17.2734L9.64178 17.695C9.94721 17.7739 10.2465 17.8564 10.5413 17.9341L10.0192 20.0936L11.2794 20.4174L11.7964 18.2808C12.1406 18.3771 12.4747 18.4659 12.8018 18.5496L12.2865 20.6762L13.5482 21L14.0702 18.8445C16.2215 19.264 17.8391 19.0949 18.52 17.0903C19.0687 15.4764 18.4927 14.5455 17.3609 13.9385C18.1852 13.7426 18.8062 13.1841 18.9717 12.0303L18.9713 12.03L18.9713 12.0301ZM16.0888 16.194C15.6989 17.8079 13.0611 16.9355 12.2059 16.7167L12.8987 13.8557C13.7539 14.0757 16.4963 14.5109 16.0888 16.194H16.0888ZM16.4789 12.0068C16.1233 13.4748 13.9278 12.7289 13.2157 12.5461L13.8438 9.95132C14.556 10.1342 16.8494 10.4755 16.4791 12.0068H16.4789Z" fill="white"></path></svg>