<svg width="28" height="28" viewBox="0 0 28 28" fill="none" xmlns="http://www.w3.org/2000/svg"><circle cx="14" cy="13.9995" r="14" fill="#8247E5"></circle><g clip-path="url(#clip0_73_10294)"><path d="M17.5729 10.8364C17.3177 10.686 16.9896 10.686 16.6979 10.8364L14.6562 12.0776L13.2708 12.8675L11.2656 14.1087C11.0104 14.2591 10.6823 14.2591 10.3906 14.1087L8.82292 13.1308C8.56771 12.9803 8.38542 12.6794 8.38542 12.3409V10.4603C8.38542 10.1594 8.53125 9.85852 8.82292 9.67046L10.3906 8.73016C10.6458 8.57972 10.974 8.57972 11.2656 8.73016L12.8333 9.70807C13.0885 9.85852 13.2708 10.1594 13.2708 10.4979V11.7391L14.6562 10.9117V9.63285C14.6562 9.33195 14.5104 9.03106 14.2187 8.843L11.3021 7.07524C11.0469 6.92479 10.7187 6.92479 10.4271 7.07524L7.4375 8.88061C7.14583 9.03106 7 9.33195 7 9.63285V13.1684C7 13.4693 7.14583 13.7702 7.4375 13.9582L10.3906 15.726C10.6458 15.8764 10.974 15.8764 11.2656 15.726L13.2708 14.5224L14.6562 13.6949L16.6615 12.4914C16.9167 12.3409 17.2448 12.3409 17.5365 12.4914L19.1042 13.4317C19.3594 13.5821 19.5417 13.883 19.5417 14.2215V16.1021C19.5417 16.403 19.3958 16.7039 19.1042 16.892L17.5729 17.8323C17.3177 17.9827 16.9896 17.9827 16.6979 17.8323L15.1302 16.892C14.875 16.7415 14.6927 16.4406 14.6927 16.1021V14.8985L13.3073 15.726V16.9672C13.3073 17.2681 13.4531 17.569 13.7448 17.757L16.6979 19.5248C16.9531 19.6752 17.2812 19.6752 17.5729 19.5248L20.526 17.757C20.7812 17.6066 20.9635 17.3057 20.9635 16.9672V13.394C20.9635 13.0931 20.8177 12.7923 20.526 12.6042L17.5729 10.8364Z" fill="white"></path></g><defs><clipPath id="clip0_73_10294"><rect width="14" height="12.6" fill="white" transform="translate(7 7)"></rect></clipPath></defs></svg>