<svg width="28" height="28" viewBox="0 0 28 28" fill="none" xmlns="http://www.w3.org/2000/svg"><circle cx="14" cy="14" r="14" fill="#24292F"></circle><g clip-path="url(#clip0_73_10306)"><path d="M17.0343 8.79657L14.7432 12.2005C14.5847 12.4323 14.8894 12.7129 15.1088 12.5177L17.3633 10.5534C17.4243 10.5046 17.5096 10.5412 17.5096 10.6266V16.7635C17.5096 16.8489 17.3999 16.8855 17.3511 16.8245L10.5265 8.65017C10.3071 8.38176 9.99026 8.23535 9.63684 8.23535H9.39311C8.75939 8.23535 8.23535 8.75997 8.23535 9.40659V18.0445C8.23535 18.6911 8.75939 19.2157 9.40529 19.2157C9.80746 19.2157 10.1853 19.0083 10.4046 18.6545L12.6958 15.2506C12.8542 15.0188 12.5495 14.7382 12.3301 14.9334L10.0756 16.8855C10.0146 16.9343 9.92933 16.8977 9.92933 16.8123V10.6876C9.92933 10.6022 10.039 10.5656 10.0878 10.6266L16.9124 18.8009C17.1318 19.0693 17.4608 19.2157 17.8021 19.2157H18.0458C18.6917 19.2157 19.2157 18.6911 19.2157 18.0445V9.40659C19.2157 8.75997 18.6917 8.23535 18.0458 8.23535C17.6314 8.23535 17.2537 8.44276 17.0343 8.79657Z" fill="white"></path></g><defs><clipPath id="clip0_73_10306"><rect width="10.9804" height="10.9804" fill="white" transform="translate(8.23535 8.23535)"></rect></clipPath></defs></svg>