<svg fill="none" height="27" viewBox="0 0 160 27" width="160" xmlns="http://www.w3.org/2000/svg" xmlns:xlink="http://www.w3.org/1999/xlink"><clipPath id="a"><path d="m0 0h160v26.3415h-160z"/></clipPath><g clip-path="url(#a)" fill="#fff"><path d="m33.7393 21.9887h3.236v-5.999h3.4251c4.1368 0 6.3052-2.4695 6.3052-5.9313 0-3.46185-2.224-5.88625-6.3052-5.88625h-6.6723zm3.236-8.6489v-6.42751h2.9691c2.4243 0 3.503 1.29678 3.503 3.19121 0 1.8944-1.1121 3.2363-3.4807 3.2363zm15.5685-9.12255h-3.1137v17.77145h3.1693zm7.1171 18.04205c.7891.0795 1.5842-.0715 2.2916-.4351.7073-.3636 1.2974-.9247 1.7006-1.6171h.1001v1.8267h3.0358v-8.9646c0-3.51825-2.8913-4.57823-5.449-4.57823-2.8245 0-4.993 1.25168-5.6825 3.67613l2.9581.4172c.216-.5451.6004-1.0046 1.0956-1.3095.4952-.305 1.0745-.439 1.6511-.382 1.4679 0 2.2241.7443 2.2241 2.0523 0 .9021-.9564.9472-3.3361 1.1953-2.6022.2819-5.0932 1.0487-5.0932 4.0482.0667 2.6838 1.9906 4.0707 4.5483 4.0707zm.8229-2.2552c-1.3233 0-2.2241-.5977-2.2241-1.7478 0-1.1502 1.112-1.714 2.4687-1.9057.9984-.0659 1.981-.2865 2.9136-.6541v1.5674c-.0221.3872-.1212.7658-.2913 1.1131-.1702.3473-.4078.6562-.6987.9079-.2909.2518-.629.4413-.9939.5571-.365.1159-.7493.1557-1.1298.117zm9.4412 2.041h3.1582v-13.3737h-3.1137zm1.5902-15.22302c.238.01688.4769-.01558.7022-.09541.2252-.07982.4321-.20533.608-.36887.1758-.16355.317-.3617.4148-.58237.0979-.22068.1504-.45925.1543-.70118-.0359-.46698-.2442-.90304-.5833-1.22111s-.784-.49474-1.246-.49474c-.4619 0-.9068.17667-1.2459.49474s-.5474.75413-.5834 1.22111c.0203.47065.2235.91402.5653 1.23312.3417.31909.7942.48794 1.2585.46961zm7.9844 7.40852c-.0414-.4004.004-.8052.1331-1.186s.3386-.7283.6141-1.0184c.2754-.29.61-.5155.9804-.6606s.7675-.2064 1.1637-.1796c.3652-.0212.7305.0394 1.0699.1775.3395.1381.6448.3503.8943.6216.2494.2712.4369.5949.5491.9479s.1463.7267.1 1.0946v7.9949h3.1582v-8.5136c0-3.1912-1.8237-5.01793-4.5927-5.01793-.8339-.06455-1.667.13513-2.3842.57145-.7171.43632-1.2829 1.08778-1.6192 1.86428h-.1556v-2.2553h-3.0248v13.3173h3.1582zm12.6105 7.8032 1.9127-5.3562h7.5172l1.913 5.3562h1.712l-6.4605-17.80527h-1.757l-6.5054 17.76017zm2.4354-6.7658 3.2249-8.9308h.089l3.1696 8.8519zm18.1925 7.0928c.883.0262 1.753-.2237 2.491-.716.738-.4922 1.309-1.2028 1.635-2.0354h.189v2.4695h1.524v-17.85037h-1.568v6.95747h-.145c-.319-.8285-.885-1.536-1.618-2.0248s-1.597-.73481-2.474-.70405c-3.336 0-5.56 2.77395-5.56 6.87855s2.279 6.9349 5.571 6.9349zm.189-1.4095c-2.668 0-4.136-2.4131-4.136-5.5141s1.445-5.44648 4.136-5.44648c2.692 0 4.104 2.25528 4.104 5.44648s-1.457 5.4239-4.07 5.4239zm10.076 1.1276h1.545v-8.6376c-.029-.4588.036-.9188.191-1.3508.156-.4319.398-.8264.711-1.1583.314-.3319.693-.5941 1.112-.7697.419-.17569.869-.26106 1.322-.25071.395-.02613.79.03478 1.16.17851.369.1438.703.367.978.6542.276.2872.488.6317.619 1.0097.132.3779.182.7804.146 1.1796v9.0211h1.546v-8.7392c-.036-.4387.021-.8802.168-1.2944.148-.4142.381-.7914.685-1.1059s.671-.5591 1.076-.7169c.406-.15788.84-.2254 1.273-.19799.409-.0301.82.03237 1.203.18289.382.1505.727.3854 1.009.6875.282.3022.494.6641.621 1.0596s.166.8147.114 1.2274v8.9308h1.557v-8.9195c0-2.9883-1.546-4.56695-4.037-4.56695-.827-.05826-1.652.14319-2.362.57696s-1.272 1.07879-1.608 1.84749h-.111c-.303-.7057-.797-1.30928-1.426-1.74004s-1.366-.67086-2.124-.69216c-.759-.0213-1.508.17708-2.159.57189-.652.39481-1.178.96971-1.519 1.65731h-.145v-2.0523h-1.512zm21.128 0h1.568v-13.4075h-1.568zm.79-15.61766c.15.00765.301-.01586.442-.0691.142-.05323.271-.13508.38-.24056.11-.10548.196-.23239.256-.37301.059-.14062.09-.29201.089-.44496 0-.31402-.123-.61518-.342-.83723-.219-.22204-.516-.34678-.825-.34678-.31 0-.607.12474-.826.34678-.219.22205-.342.52321-.342.83723.011.14929.052.29483.119.42812.067.1333.16.25169.273.34826s.243.16938.384.2142.289.06074.436.04684zm6.439 7.28446c-.032-.4967.04-.9946.211-1.4611s.438-.891.782-1.2456c.345-.3546.759-.6313 1.216-.812.458-.1807.948-.26119 1.438-.23628.458-.0196.914.06028 1.339.23418s.808.4379 1.124.7743.557.7373.708 1.176c.15.4387.207.905.165 1.3676v8.5361h1.557v-8.7166c0-3.1573-1.846-4.87133-4.548-4.87133-.805-.06315-1.609.11751-2.312.51906s-1.273 1.00587-1.636 1.73617h-.145v-2.0748h-1.512v13.3173h1.557z"/><path d="m29.0911 11.4794-5.7382-9.77655c-.2915-.51668-.7124-.946196-1.2201-1.245163-.5076-.298967-1.0841-.45679973-1.6712-.45755883h-11.40947c-.59271-.00523128-1.17609.14976083-1.69013.44902983-.51403.299268-.94016.732002-1.23453 1.253692l-5.704748 9.77655c-.278362.5191-.42418684 1.1006-.42418684 1.6915 0 .5908.14582484 1.1723.42418684 1.6914l5.704748 9.7766c.29437.5216.7205.9544 1.23453 1.2537.51404.2992 1.09742.4542 1.69013.449h11.40947c.586.0004 1.1617-.1558 1.6693-.4527s.9291-.7242 1.222-1.2388l5.7048-9.7765c.2845-.518.4365-1.0999.4424-1.6928.0058-.5929-.1348-1.1778-.409-1.7014zm-2.2241 2.12-5.7381 9.7765c-.0768.1411-.1922.2567-.3323.3327s-.2989.1093-.4573.0958h-11.28717c-.15702.0046-.3125-.0325-.451-.1077-.13851-.0752-.25521-.1857-.33854-.3208l-5.69364-9.7765c-.07135-.1434-.10853-.3018-.10853-.4624s.03718-.3189.10853-.4623l5.70476-9.76528c.07675-.14111.19215-.25666.33226-.3327.1401-.07604.29893-.10931.45728-.0958h11.39835c.1571-.0046.3125.03253.451.1077s.2553.18576.3386.3208l5.7047 9.77658c.075.1437.1076.3063.0938.4683s-.0734.3165-.1716.4451z"/><path d="m19.9499 7.02498h-2.2908c-.8959-.00615-1.7584.34509-2.4012.97796s-1.0146 1.49663-1.035 2.40496v2.4695h-2.4798c-.896-.0062-1.7584.3451-2.40124.9779-.64284.6329-1.01457 1.4967-1.03498 2.405v2.2552c.00587.4796.19861.9373.53614 1.2732.33754.3359.79243.5228 1.26538.5198h2.2241c.8959.0061 1.7583-.3451 2.4012-.978.6428-.6329 1.0145-1.4966 1.035-2.4049v-2.4244h2.4909c.896.0061 1.7584-.3451 2.4012-.978.6429-.6329 1.0146-1.4966 1.035-2.4049v-2.25528c.0044-.23694-.0372-.47245-.1226-.69306-.0853-.22062-.2127-.42202-.3748-.59271-.1622-.17068-.3559-.30731-.5701-.40207s-.4447-.1458-.6784-.1502zm-5.727 9.92312c-.0029.2414-.0526.4799-.1464.7017-.0938.2219-.2298.4229-.4002.5915-.1704.1685-.3718.3014-.5929.3911-.221.0896-.4573.1342-.6953.1312h-2.2241c-.0512.0001-.1005-.0197-.1378-.0554-.0372-.0356-.05953-.0844-.06238-.1363v-2.2552c.0029-.2414.05268-.4799.14648-.7017.0938-.2219.2297-.4229.4001-.5915s.3719-.3015.5929-.3911c.2211-.0896.4573-.1342.6954-.1312h2.4798zm5.9272-5.8862c-.0059.4885-.2021.9548-.5459 1.2971s-.8072.5327-1.289.5297h-2.4909v-2.4695c.0014-.2424.0501-.48203.1432-.70521.0932-.22318.2289-.42548.3994-.59526.1706-.16978.3725-.30369.5943-.39402s.459-.1353.6979-.13232h2.2908c.0531 0 .104.02138.1416.05945.0375.03806.0586.08969.0586.14352z" stroke="#fff" stroke-width=".5"/></g></svg>