<svg fill="none" height="37" viewBox="0 0 160 37" width="160" xmlns="http://www.w3.org/2000/svg" xmlns:xlink="http://www.w3.org/1999/xlink"><clipPath id="a"><path d="m0 0h36.0766v36.0766h-36.0766z"/></clipPath><g fill="#fff"><g clip-path="url(#a)"><path d="m36.0189 16.552c-.0177-.18-.1011-.3471-.2341-.4696-.1331-.1224-.3067-.1915-.4875-.1942h-17.9805c-.4883.0119-.9649.1514-1.3826.4045-.4177.2532-.762.6112-.9985 1.0385-.2189.3822-.3341.815-.3341 1.2555s.1152.8733.3341 1.2555c.0626.1202.1553.222.2692.2954.1139.0733.2449.1158.3801.1231h19.7557c.1808-.0027.3543-.0719.4874-.1943s.2164-.2896.2341-.4695c0-.5628 0-1.039 0-1.4431s0-1.0534-.0433-1.6018z" opacity=".72"/><path d="m36.0043 16.552c-.0143-.1787-.0946-.3457-.2253-.4684-.1307-.1228-.3025-.1924-.4818-.1954h-2.8861c-.1013.0011-.2012.0236-.2932.0658-.092.0423-.174.1034-.2408.1795-.0672.0731-.1177.1602-.1476.2549-.0299.0948-.0386.195-.0255.2935v1.443c-.0037 2.3027-.5872 4.5674-1.6969 6.5851-1.1097 2.0176-2.7099 3.7232-4.6526 4.9594-.2021.1299-.3896.2887-.606.4041-1.059.603-2.1951 1.0594-3.3769 1.3565l1.8905 3.3623c.0642.1112.1568.2032.2684.2667.1117.0634.2381.0959.3664.0941.0764.0138.1546.0138.231 0l.4617-.1876.4185-.1732c.6384-.2651 1.2601-.5687 1.8616-.9091 2.8136-1.5849 5.1513-3.8943 6.7704-6.6884 1.6191-2.794 2.4603-5.9706 2.4364-9.1997 0-.534-.0289-.9525-.0722-1.4431z"/><path d="m25.7899 30.249c-.097-.1646-.2511-.2879-.433-.3463h-.202c-.1253.001-.2487.0306-.3608.0865-2.0577 1.1709-4.3859 1.7829-6.7534 1.775-3.6336-.0076-7.1161-1.4544-9.68541-4.0237s-4.01611-6.0518-4.02374-9.6854c.00763-3.6335 1.45443-7.1161 4.02374-9.68536 2.56931-2.56931 6.05181-4.0161 9.68541-4.02373 2.3664.00076 4.6924.61212 6.7534 1.77496.1077.06839.2332.10352.3608.10102h.1587c.0989-.02184.1923-.06387.2743-.12346.0819-.0596.1507-.13547.202-.22287l1.4431-2.51093c.0954-.167.1216-.36471.0731-.55081-.0486-.18609-.1682-.34579-.333-.44491-2.7162-1.534959-5.7836-2.340349-8.9036-2.3377537-4.7817.0076324-9.36536 1.9105437-12.74655 5.2917237-3.38118 3.38118-5.2840676 7.96482-5.2917 12.74652.0076324 4.7818 1.91052 9.3654 5.2917 12.7466 3.38119 3.3812 7.96485 5.2841 12.74655 5.2917 3.12.0026 6.1874-.8028 8.9036-2.3377.0826-.0464.155-.1088.213-.1836.058-.0749.1003-.1606.1245-.2521.0243-.0915.03-.187.0166-.2807-.0133-.0937-.0454-.1838-.0942-.2649z"/><path d="m20.1017 20.2026h-4.5599c-.1294-.0092-.2547-.0495-.3652-.1173s-.203-.1612-.2699-.2723l8.3843 14.8491c.0642.1112.1569.2032.2685.2667.1116.0634.238.0959.3664.0941.0812.0137.1642.0137.2454 0 .9535-.3433 1.8757-.7682 2.7563-1.2699.0825-.0464.1548-.1088.2128-.1836.0579-.0749.1003-.1606.1245-.2521s.0299-.187.0166-.2807c-.0134-.0937-.0455-.1838-.0943-.2649z" opacity=".56"/></g><path d="m56.8218 11.3628v18.0548h-3.1749v-18.0548h-4.8373v-2.98416h12.8359v2.98416z"/><path d="m72.5057 16.1456h3.0795v13.272h-3.0795v-1.3899c-1.2627 1.181-2.6208 1.7715-4.0743 1.7715-1.835 0-3.352-.6632-4.5512-1.9895-1.19-1.3535-1.785-3.0432-1.785-5.069 0-1.9894.595-3.6473 1.785-4.9735 1.1901-1.3263 2.6799-1.9895 4.4695-1.9895 1.5443 0 2.9296.6359 4.156 1.9077zm-7.2765 6.5951c0 1.2718.3407 2.3074 1.022 3.1068.6995.8085 1.5807 1.2128 2.6435 1.2128 1.1355 0 2.053-.3906 2.7525-1.1719.6995-.8085 1.0493-1.835 1.0493-3.0795 0-1.2446-.3498-2.2711-1.0493-3.0796-.6995-.7903-1.6079-1.1854-2.7252-1.1854-1.0538 0-1.935.3997-2.6435 1.1991-.6995.8085-1.0493 1.8077-1.0493 2.9977z"/><path d="m82.521 16.1456v13.272h-3.0659v-13.272zm-3.5292-5.5186c0-.536.1953-.99928.5859-1.3899s.8585-.58593 1.4035-.58593c.5542 0 1.0265.19531 1.4172.58593.3906.38154.5859.8494.5859 1.4035s-.1953 1.0265-.5859 1.4171c-.3816.3907-.8494.586-1.4035.586-.5542 0-1.0266-.1953-1.4172-.586-.3906-.3906-.5859-.8675-.5859-1.4307z"/><path d="m89.4704 6.40283v23.01477h-3.0659v-23.01477z"/><path d="m104.759 18.4621h8.694v.6949c0 1.5807-.187 2.9797-.559 4.1969-.363 1.1265-.977 2.1802-1.84 3.1613-1.953 2.1984-4.437 3.2976-7.453 3.2976-2.943 0-5.4643-1.0629-7.5627-3.1886-2.0985-2.1347-3.1477-4.6965-3.1477-7.6852 0-3.0523 1.0674-5.6413 3.2022-7.767 2.1348-2.13475 4.7332-3.20215 7.7942-3.20215 1.644 0 3.179.33612 4.606 1.00835 1.362.67223 2.702 1.7623 4.019 3.2703l-2.262 2.1666c-1.725-2.2983-3.828-3.4475-6.308-3.4475-2.226 0-4.0929.7677-5.6009 2.3029-1.508 1.508-2.2619 3.3975-2.2619 5.6685 0 2.3437.8402 4.2741 2.5208 5.7912 1.572 1.408 3.275 2.1121 5.11 2.1121 1.562 0 2.966-.5269 4.21-1.5807 1.245-1.0628 1.94-2.3346 2.085-3.8153h-5.246z"/><path d="m116.873 16.1456h3.066v1.1855c.563-.5905 1.063-.9947 1.499-1.2127.445-.2271.972-.3407 1.58-.3407.809 0 1.654.2635 2.535.7903l-1.404 2.8071c-.581-.4179-1.149-.6269-1.703-.6269-1.671 0-2.507 1.2627-2.507 3.7882v6.8812h-3.066z"/><path d="m130.813 16.1456v13.272h-3.066v-13.272zm-3.53-5.5186c0-.536.196-.99928.586-1.3899.391-.39062.859-.58593 1.404-.58593.554 0 1.026.19531 1.417.58593.391.38154.586.8494.586 1.4035s-.195 1.0265-.586 1.4171c-.382.3907-.849.586-1.404.586-.554 0-1.026-.1953-1.417-.586-.39-.3906-.586-.8675-.586-1.4307z"/><path d="m144.48 6.40283h3.079v23.01477h-3.079v-1.3899c-1.208 1.181-2.576 1.7715-4.102 1.7715-1.817 0-3.325-.6632-4.524-1.9895-1.19-1.3535-1.785-3.0432-1.785-5.069 0-1.9803.595-3.6336 1.785-4.9599 1.181-1.3354 2.667-2.0031 4.456-2.0031 1.553 0 2.943.6359 4.17 1.9077zm-7.277 16.33787c0 1.2718.341 2.3074 1.022 3.1068.7.8085 1.581 1.2128 2.644 1.2128 1.135 0 2.053-.3906 2.752-1.1719.7-.8085 1.049-1.835 1.049-3.0795 0-1.2446-.349-2.2711-1.049-3.0796-.699-.7903-1.608-1.1854-2.725-1.1854-1.054 0-1.935.3997-2.643 1.1991-.7.8085-1.05 1.8077-1.05 2.9977z"/><path d="m159.142 18.4076-2.535 1.349c-.4-.8176-.895-1.2264-1.485-1.2264-.282 0-.522.0954-.722.2862-.2.1817-.3.4179-.3.7085 0 .5088.59 1.0129 1.771 1.5126 1.626.6994 2.721 1.3444 3.284 1.9349s.845 1.3853.845 2.3846c0 1.2809-.472 2.3528-1.417 3.2158-.918.8176-2.026 1.2264-3.325 1.2264-2.226 0-3.802-1.0856-4.728-3.2567l2.616-1.2128c.363.6359.64 1.0402.831 1.2128.373.3452.818.5178 1.336.5178 1.035 0 1.553-.4724 1.553-1.4172 0-.545-.4-1.0537-1.199-1.5261-.309-.1544-.618-.3043-.927-.4497-.309-.1453-.622-.2952-.94-.4496-.89-.4361-1.517-.8721-1.88-1.3082-.464-.5541-.695-1.2672-.695-2.1393 0-1.1537.395-2.1075 1.185-2.8615.809-.754 1.79-1.131 2.944-1.131 1.698 0 2.961.8766 3.788 2.6299z"/></g></svg>