<svg fill="none" height="30" viewBox="0 0 114 30" width="114" xmlns="http://www.w3.org/2000/svg" xmlns:xlink="http://www.w3.org/1999/xlink"><linearGradient id="a" gradientUnits="userSpaceOnUse" x1="22.1205" x2="4.57937" y1="26.849" y2="-2.7169"><stop offset="0" stop-color="#fff" stop-opacity=".7"/><stop offset="1" stop-color="#fff" stop-opacity=".61"/><stop offset="1" stop-color="#fff" stop-opacity=".42"/></linearGradient><linearGradient id="b" gradientUnits="userSpaceOnUse" x1="2.44297" x2="6.573" y1="5.03569" y2="-.071371"><stop offset="0" stop-color="#fff"/><stop offset=".327273" stop-color="#fff" stop-opacity=".65"/><stop offset="1" stop-color="#fff" stop-opacity=".2"/></linearGradient><linearGradient id="c" gradientUnits="userSpaceOnUse" x1="35.0001" x2="31.8578" y1="18.9998" y2="30.9624"><stop offset="0" stop-color="#fff" stop-opacity="0"/><stop offset="1" stop-color="#fff" stop-opacity=".18"/></linearGradient><clipPath id="d"><path d="m0 0h114v30h-114z"/></clipPath><g clip-path="url(#d)"><path d="m104.934 18.3202 9.011-10.99839h-4.424l-8.078 9.85909v-.0632l-3.6613 4.4925-.7964.9775c-.0228.0389-.0449.0789-.0684.1178l-1.3726 1.6748c-.2546.234-.5236.4513-.8071.6481-1.2039.8349-2.6433 1.3201-4.2082 1.3206v.0572c-1.0412-.0019-2.0246-.2176-2.9214-.6071-1.349-.5865-2.5019-1.5698-3.3143-2.8054-.8117-1.2376-1.2844-2.7166-1.2852-4.3251 0-1.0738.2105-2.087.5905-3.0114.5708-1.3872 1.5276-2.5719 2.7307-3.4069 1.2038-.8343 2.6433-1.3193 4.2089-1.32 1.6545.0007 3.1707.5427 4.4141 1.4673l1.9851-2.81541c-1.7944-1.33884-4.0144-2.13031-6.3992-2.12984-1.5026 0-2.942.31407-4.2492.88238-1.9608.85231-3.6237 2.27247-4.8009 4.06137-1.1765 1.7879-1.8651 3.9555-1.8643 6.2725 0 .0382.0031.0771.0031.1158h-.0593c0 1.0726-.2105 2.0866-.5913 3.0109-.5708 1.3862-1.5269 2.5717-2.7292 3.4062-1.2041.8344-2.6439 1.3198-4.2089 1.3207-1.045-.0006-2.0308-.2166-2.931-.6079-1.3487-.5856-2.5019-1.5692-3.3149-2.8052-.3799-.5793-.6853-1.2129-.9026-1.8871-.1401-.0705-.2913-.1497-.4514-.2375-.7714-.4245-1.738-1.0438-2.5308-1.8568-.3321-.3414-.6298-.6787-.8968-1.0051.0175.2176.0278.4381.0278.6618 0 1.0726-.21 2.0866-.591 3.0109-.5699 1.3862-1.5273 2.5717-2.7297 3.4062-1.2041.8344-2.644 1.3198-4.2088 1.3207-1.0448-.0006-2.0308-.2166-2.9309-.6079-1.3492-.5856-2.502-1.5692-3.3142-2.8052-.8124-1.2371-1.2848-2.7171-1.2851-4.3247 0-1.0732.2107-2.0872.591-3.012.57-1.3863 1.5272-2.571 2.7298-3.406 1.2041-.8344 2.6434-1.3201 4.2094-1.3204 1.0439 0 2.0303.2168 2.9303.6075 1.3493.5862 2.5019 1.5694 3.3144 2.8052.0184.0281.0356.0565.0534.085l.0053-.002.0002.0025.0051.0128c.0004.0019.0021.0052.0029.008.0313.0493.0604.1007.0906.1503.0759.1755.2271.5081.4661.942.0241.0434.0498.0891.0757.1349.0195.0481.0414.0951.0598.1436.222.3718.5048.7991.8541 1.2572.019.0253.0366.0498.0561.0747.3053.4036.6643.8246 1.0755 1.2373.0025.0031.0049.0055.0071.0078.0033.0035.0067.0061.0096.0095.0652.0655.131.1297.1993.1942.0267.0248.0529.0497.0797.0742.4307.4021.9138.7909 1.4613 1.1402.6153.3928 1.3085.734 2.0761.9793.7679.246 1.6099.395 2.5097.4091h.0011c.0776.0014.1536.0022.2292.0022 1.4502.0003 2.7506-.2326 3.8923-.6475.8569-.3107 1.6222-.7221 2.2937-1.1988 1.0078-.7163 1.8027-1.5749 2.4221-2.4548.6194-.8816 1.0656-1.7851 1.3908-2.6189.2485-.6382.3762-1.2723.3762-1.8795 0-.3493-.0418-.6867-.1201-1.001-.136-.5503-.3792-1.0205-.6497-1.3904-.4089-.55748-.8664-.90479-1.2221-1.13018-.3595-.22423-.627-.32792-.7068-.35753l-.0061.01961c-1.4259-.70038-3.0242-1.09423-4.7037-1.09392-1.5026-.00031-2.9425.31331-4.2494.88184-1.2789.55647-2.4301 1.3547-3.4041 2.33888v-10.7707453h-3.3833v9.3818653c.2067.20339.4216.424.6445.66488.8559.9247 1.4104 1.8182 1.8971 2.64.4877.8242.9087 1.571 1.5002 2.2527.0898.1044.1853.2071.2848.3091.5814-1.1687 1.4467-2.1689 2.5011-2.9007 1.203-.8344 2.6433-1.3201 4.2091-1.3204 1.3725.0003 2.6471.3736 3.7542 1.0288l.0133-.0241c.0725.0582.1386.1255.1754.1833.0274.0409.0449.0762.0578.1169.0122.0406.0236.0881.0236.1711 0 .1115-.0213.2963-.1343.5878-.2125.5462-.4935 1.1223-.8532 1.6694-.2697.4103-.5838.8048-.9458 1.1642-.5456.5394-1.1964 1.0026-2.013 1.3422-.8165.3389-1.8054.5577-3.0446.558-.0582 0-.1159-.0003-.1737-.0012h-.0009c-.5118-.0089-.9728-.0827-1.401-.2046-.7466-.2133-1.3953-.5763-1.9652-1.0224-.1992-.1557-.3873-.3228-.5652-.4956 0-.0008.0003-.003.0015-.0046-.0855-.0809-.1674-.1629-.2473-.2445-.4679-.4957-.8502-1.0202-1.1306-1.4719-.2141-.3438-.4344-.6302-.534-.834-.0496-.1024-.1486-.2611-.1486-.2611-.5062-.858-1.0324-1.7298-1.8733-2.6391-.011-.0121-.022-.022-.0319-.0342v.0006c-.4322-.419-.8955-.80365-1.3896-1.1465-1.7397-1.20862-3.8486-1.91685-6.1028-1.91592-1.5026-.00031-2.942.31331-4.2492.88184-1.9608.85285-3.6239 2.27288-4.8005 4.06158-1.1763 1.7877-1.8655 3.955-1.8648 6.2724-.0007 1.5435.305 3.0233.8582 4.3657.8296 2.0153 2.2113 3.7239 3.9525 4.933 1.7398 1.2095 3.8487 1.9172 6.1038 1.9169 1.502.0001 2.9421-.314 4.2488-.8827 1.9608-.8525 3.6235-2.2723 4.8005-4.061.0737-.113.1458-.2266.2157-.3424.8132 1.339 1.8907 2.4874 3.1598 3.3692 1.7402 1.2095 3.849 1.9172 6.1044 1.9169 1.5014.0001 2.9416-.314 4.2484-.8827 1.9593-.8525 3.6237-2.2723 4.7995-4.061.082-.124.1611-.25.2371-.3782.8078 1.3044 1.8665 2.4251 3.1122 3.2892 1.7396 1.209 3.8478 1.9168 6.1028 1.9166 1.501.0002 2.9427-.3137 4.2484-.8822 1.2221-.5308 2.3271-1.2823 3.2718-2.2058v3.1312h3.3846v-7.3467l1.27-1.5489 6.948 8.8956h4.339zm-3.491-18.3016453h-3.3846v18.5961453c0 .5044-.0479.9952-.1384 1.4709l3.523-4.3221z" fill="#fff"/><path d="m19.3908 7.99615v9.11385c0 4.2457-2.5366 6.8101-6.3818 6.8101-3.8456 0-6.54525-2.5644-6.54525-6.8101v-17.11h-6.46375v17.11c0 7.7772 5.07231 12.6118 13.009 12.6118 7.8953 0 12.8456-4.8346 12.8456-12.6118v-17.11h-.1136c-3.4087 1.1247-5.9517 4.22869-6.3502 7.99615z" fill="url(#a)"/><path d="m31.3879 0h-.111v29.4279h6.4638v-21.42582c-.061-3.27024-2.9421-6.87666-6.3528-8.00208z" fill="#fff"/><path d="m19.3907 7.99615v9.11385c0 .0055-.0004.0109-.0004.017.0015.0906.0063.1805.0063.2718 0 6.138-4.4985 11.1934-10.29138 11.8823 1.20558.2886 2.50958.4407 3.90368.4407 7.8953 0 12.8456-4.8346 12.8456-12.6118v-17.11h-.1136c-3.4087 1.1247-5.9517 4.22869-6.3502 7.99615z" fill="#fff"/><path d="m6.46375 8.01092v-8.01092h-6.46375v.00129846c3.43655 1.12672154 6.01172 4.22999154 6.46375 8.00962154z" fill="url(#b)"/><path d="m31.2769 20.707v8.7206h6.3849c-3.5606-1.2911-6.1572-4.6786-6.3849-8.7206z" fill="url(#c)"/></g></svg>